<?xml version="1.0" encoding="UTF-8"?><svg xmlns="http://www.w3.org/2000/svg" xmlns:xlink="http://www.w3.org/1999/xlink" contentScriptType="text/ecmascript" width="1440" zoomAndPan="magnify" contentStyleType="text/css" viewBox="0 0 1440 809.999993" height="809.999993" preserveAspectRatio="xMidYMid meet" version="1.0"><path fill="rgb(100%, 96.078491%, 80.389404%)" d="M 139.949219 472.277344 C 16.925781 472.277344 -82.800781 572.003906 -82.800781 695.027344 C -82.800781 818.046875 16.925781 917.777344 139.949219 917.777344 C 262.96875 917.777344 362.699219 818.046875 362.699219 695.027344 C 362.699219 572.003906 262.96875 472.277344 139.949219 472.277344 Z M 139.949219 472.277344 " fill-opacity="1" fill-rule="nonzero"/><path fill="rgb(100%, 96.078491%, 80.389404%)" d="M 447.046875 572.210938 C 324.023438 572.210938 224.296875 671.941406 224.296875 794.960938 C 224.296875 917.984375 324.023438 1017.710938 447.046875 1017.710938 C 570.066406 1017.710938 669.796875 917.984375 669.796875 794.960938 C 669.796875 671.941406 570.066406 572.210938 447.046875 572.210938 Z M 447.046875 572.210938 " fill-opacity="1" fill-rule="nonzero"/><path fill="rgb(100%, 96.078491%, 80.389404%)" d="M 1359 364.5 C 1235.976562 364.5 1136.25 464.230469 1136.25 587.25 C 1136.25 710.269531 1235.976562 810 1359 810 C 1482.019531 810 1581.75 710.269531 1581.75 587.25 C 1581.75 464.230469 1482.019531 364.5 1359 364.5 Z M 1359 364.5 " fill-opacity="1" fill-rule="nonzero"/><path fill="rgb(100%, 96.078491%, 80.389404%)" d="M 1122.890625 572.210938 C 999.871094 572.210938 900.140625 671.941406 900.140625 794.960938 C 900.140625 917.984375 999.871094 1017.710938 1122.890625 1017.710938 C 1245.914062 1017.710938 1345.640625 917.984375 1345.640625 794.960938 C 1345.640625 671.941406 1245.914062 572.210938 1122.890625 572.210938 Z M 1122.890625 572.210938 " fill-opacity="1" fill-rule="nonzero"/><path fill="rgb(100%, 96.078491%, 80.389404%)" d="M 797.648438 522.992188 C 674.625 522.992188 574.898438 622.722656 574.898438 745.742188 C 574.898438 868.765625 674.625 968.492188 797.648438 968.492188 C 920.667969 968.492188 1020.398438 868.765625 1020.398438 745.742188 C 1020.398438 622.722656 920.667969 522.992188 797.648438 522.992188 Z M 797.648438 522.992188 " fill-opacity="1" fill-rule="nonzero"/></svg>